# xmcd CD database file
#
# Track frame offsets:
#	150
#	13570
#	35470
#	58560
#	80207
#	96937
#	121480
#	136227
#	160032
#	180882
#	210337
#	223487
#	249165
#
# Disc length: 3672 seconds
#
# Revision: 0
# Processed by: cddbd v1.4PL0 Copyright (c) Steve Scherf et al.
# Submitted via: CDex 1.50beta10
#
DISCID=aa0e560d
DTITLE=Maximilian Geller - goes Bossa
DYEAR=1996
DGENRE=Jazz
TTITLE0=Briga nunca mais
TTITLE1=Vivo sonhando
TTITLE2=So many stars
TTITLE3=Fotografia
TTITLE4=Antes que seja tarde
TTITLE5=Wild is the wind
TTITLE6=Chovendo na roseira
TTITLE7=Ponteio
TTITLE8=Watercolor dream
TTITLE9=Retratro em branco e preto
TTITLE10=O morro não tem vez
TTITLE11=Manhã de carnaval
TTITLE12=Poineiana
EXTD=YEAR: 1996
EXTT0=
EXTT1=
EXTT2=
EXTT3=
EXTT4=
EXTT5=
EXTT6=
EXTT7=
EXTT8=
EXTT9=
EXTT10=
EXTT11=
EXTT12=
PLAYORDER=
